<?xml version="1.0" encoding="UTF-8"?>
<!DOCTYPE svg PUBLIC "-//W3C//DTD SVG 1.1//EN" "http://www.w3.org/Graphics/SVG/1.1/DTD/svg11.dtd">
<svg xmlns="http://www.w3.org/2000/svg" version="1.1" width="500px" height="500px" style="shape-rendering:geometricPrecision; text-rendering:geometricPrecision; image-rendering:optimizeQuality; fill-rule:evenodd; clip-rule:evenodd" xmlns:xlink="http://www.w3.org/1999/xlink">
<g><path style="opacity:0.776" fill="#fafafa" d="M 133.5,207.5 C 132.798,206.884 131.798,206.884 130.5,207.5C 133.642,204.531 136.975,201.698 140.5,199C 144.107,195.902 147.107,192.402 149.5,188.5C 139.198,197.325 128.865,206.159 118.5,215C 120.537,214.517 122.537,213.684 124.5,212.5C 124.842,213.338 125.508,213.672 126.5,213.5C 123.158,216.268 119.658,218.934 116,221.5C 115.392,223.154 114.892,224.821 114.5,226.5C 112.97,224.631 111.47,222.631 110,220.5C 109.617,221.056 109.117,221.389 108.5,221.5C 108.685,219.804 109.519,218.471 111,217.5C 111.667,216.167 111.667,214.833 111,213.5C 105.544,219.11 100.71,225.11 96.5,231.5C 96.2792,228.903 95.7792,228.903 95,231.5C 94.7679,230.263 94.2679,229.263 93.5,228.5C 96.7673,220.133 101.434,212.633 107.5,206C 106.39,202.084 108.057,200.084 112.5,200C 114.019,198.649 115.352,197.149 116.5,195.5C 112.002,193.876 111.002,191.209 113.5,187.5C 117.215,186.018 119.381,187.351 120,191.5C 120.818,188.773 120.652,186.106 119.5,183.5C 115.967,181.58 115.633,179.246 118.5,176.5C 113.818,177.728 109.484,179.728 105.5,182.5C 103.543,186.744 101.876,191.077 100.5,195.5C 99.8333,194.833 99.1667,194.167 98.5,193.5C 101.197,184.936 104.864,176.77 109.5,169C 102.173,155.086 101.673,140.92 108,126.5C 116.518,108.316 129.518,94.3159 147,84.5C 148.059,84.6301 148.892,85.1301 149.5,86C 147.294,89.268 145.461,92.768 144,96.5C 139.31,111.293 134.643,125.96 130,140.5C 134,136.5 138,132.5 142,128.5C 145.137,119.423 148.47,110.423 152,101.5C 158.72,86.1138 169.553,74.6138 184.5,67C 194.639,62.2607 204.972,58.0941 215.5,54.5C 198.404,73.1033 181.404,91.9367 164.5,111C 174.79,105.864 185.457,101.197 196.5,97C 203.093,85.8118 210.426,75.1451 218.5,65C 225.934,58.6215 234.601,54.9548 244.5,54C 257.076,51.6742 269.743,50.6742 282.5,51C 283.833,52 283.833,53 282.5,54C 265.031,62.2304 248.697,72.2304 233.5,84C 229.952,85.9407 226.286,87.6074 222.5,89C 224.833,89.6667 227.167,89.6667 229.5,89C 260.307,79.8841 290.307,81.8841 319.5,95C 326.595,98.8814 333.929,102.215 341.5,105C 342.706,107.709 341.706,109.375 338.5,110C 300.146,115.897 263.813,109.73 229.5,91.5C 209.797,94.5172 191.131,100.684 173.5,110C 182.652,107.379 191.985,105.045 201.5,103C 223.963,101.459 245.296,105.626 265.5,115.5C 265.291,116.086 264.957,116.586 264.5,117C 241.41,124.571 217.743,127.904 193.5,127C 180.868,124.908 168.201,123.575 155.5,123C 146.187,128.3 138.02,135.134 131,143.5C 126.333,149.5 121.667,155.5 117,161.5C 116.018,162.759 115.685,164.092 116,165.5C 121.886,160.613 128.053,156.113 134.5,152C 134.799,150.68 134.966,149.18 135,147.5C 136.6,146.134 138.433,145.134 140.5,144.5C 138.641,140.934 139.641,138.6 143.5,137.5C 147.589,139.248 148.255,141.748 145.5,145C 151.826,144.788 154.826,141.621 154.5,135.5C 158.964,132.567 161.631,133.9 162.5,139.5C 175.678,135.539 189.011,132.206 202.5,129.5C 196.713,144.119 186.38,154.286 171.5,160C 160.37,164.043 149.203,167.877 138,171.5C 129.001,187.849 129.834,188.516 140.5,173.5C 143.035,172.497 145.202,173.163 147,175.5C 151.077,172.212 155.244,169.045 159.5,166C 161.074,165.301 162.407,165.635 163.5,167C 161.567,174.701 158.4,181.867 154,188.5C 147.624,195.378 140.79,201.712 133.5,207.5 Z M 266.5,54.5 C 260.017,57.1739 253.683,60.3406 247.5,64C 237.796,71.8475 227.462,78.6808 216.5,84.5C 228.741,67.3694 245.408,57.3694 266.5,54.5 Z M 206.5,88.5 C 210.768,78.4655 217.101,69.9655 225.5,63C 232.463,59.427 239.797,57.427 247.5,57C 240.724,59.5539 234.391,62.8873 228.5,67C 222.81,73.6884 216.81,80.0217 210.5,86C 209.016,86.6622 207.683,87.4955 206.5,88.5 Z M 266.5,58.5 C 254.8,65.3516 243.467,72.8516 232.5,81C 229.264,82.7862 225.93,84.2862 222.5,85.5C 230.598,79.9165 238.598,74.0832 246.5,68C 252.805,64.0136 259.472,60.847 266.5,58.5 Z M 189.5,68.5 C 180.602,75.2207 172.102,82.554 164,90.5C 159.217,98.3605 154.717,106.36 150.5,114.5C 155.597,92.4073 168.597,77.074 189.5,68.5 Z M 195.5,71.5 C 187.634,81.2192 179.3,90.5525 170.5,99.5C 177.356,88.9701 185.689,79.6368 195.5,71.5 Z M 187.5,74.5 C 177.693,84.1389 169.193,94.8055 162,106.5C 159.715,109.432 157.215,112.098 154.5,114.5C 160.397,96.9381 171.397,83.6048 187.5,74.5 Z M 216.5,84.5 C 216.027,85.9063 215.027,86.573 213.5,86.5C 213.973,85.0937 214.973,84.427 216.5,84.5 Z M 322.5,100.5 C 313.57,98.5381 304.903,95.7047 296.5,92C 282.712,88.5542 268.712,86.8875 254.5,87C 278.744,83.8974 301.41,88.3974 322.5,100.5 Z M 248.5,91.5 C 271.378,88.6141 293.378,92.1141 314.5,102C 318.797,103.158 323.131,104.158 327.5,105C 322.833,105.667 318.167,105.667 313.5,105C 291.854,100.282 270.188,95.7822 248.5,91.5 Z M 242.5,93.5 C 266.513,98.0039 290.513,102.837 314.5,108C 318.5,108.333 322.5,108.667 326.5,109C 297.011,111.2 269.011,106.034 242.5,93.5 Z M 132.5,97.5 C 133.525,97.8966 133.692,98.5632 133,99.5C 117.549,115.738 109.216,135.071 108,157.5C 104.984,148.79 105.318,140.124 109,131.5C 114.118,118.256 121.951,106.922 132.5,97.5 Z M 170.5,99.5 C 170.573,101.027 169.906,102.027 168.5,102.5C 168.427,100.973 169.094,99.9731 170.5,99.5 Z M 134.5,102.5 C 130.678,110.812 126.845,119.145 123,127.5C 119.934,139.03 116.268,150.363 112,161.5C 110.279,150.936 111.613,140.602 116,130.5C 120.459,119.905 126.626,110.572 134.5,102.5 Z M 138.5,102.5 C 135.958,113.33 132.792,123.997 129,134.5C 126.23,141.056 122.73,147.056 118.5,152.5C 122.633,134.756 129.3,118.089 138.5,102.5 Z M 168.5,116.5 C 181.763,110.347 195.763,106.347 210.5,104.5C 225.614,105.556 240.281,108.723 254.5,114C 249.961,114.253 245.461,114.753 241,115.5C 228.064,113.655 215.064,112.322 202,111.5C 190.718,112.457 179.551,114.124 168.5,116.5 Z M 154.5,114.5 C 154.573,116.027 153.906,117.027 152.5,117.5C 152.427,115.973 153.094,114.973 154.5,114.5 Z M 193.5,114.5 C 205.546,114.645 217.546,115.478 229.5,117C 226.425,118.007 223.258,118.507 220,118.5C 206.843,117.798 193.676,117.298 180.5,117C 184.988,116.24 189.322,115.406 193.5,114.5 Z M 188.5,119.5 C 204.496,120.03 220.496,120.53 236.5,121C 215.168,125.64 193.835,125.64 172.5,121C 178.016,120.827 183.349,120.327 188.5,119.5 Z M 186.5,136.5 C 175.039,141.724 163.372,146.724 151.5,151.5C 151.167,151.167 150.833,150.833 150.5,150.5C 153.189,145.974 157.189,143.141 162.5,142C 170.444,139.847 178.444,138.014 186.5,136.5 Z M 192.5,140.5 C 189.35,145.815 185.017,149.981 179.5,153C 168.222,158.308 156.555,162.475 144.5,165.5C 148.675,161.115 153.675,159.115 159.5,159.5C 160.386,158.675 160.719,157.675 160.5,156.5C 172.276,153.279 182.943,147.945 192.5,140.5 Z M 184.5,141.5 C 177.045,146.98 168.879,151.313 160,154.5C 158.745,153.789 157.579,152.956 156.5,152C 165.818,148.395 175.152,144.895 184.5,141.5 Z M 147.5,147.5 C 148.043,147.56 148.376,147.893 148.5,148.5C 145.298,153.413 144.965,153.079 147.5,147.5 Z M 123.5,163.5 C 127.651,160.197 131.985,157.03 136.5,154C 139.294,153.769 139.794,154.603 138,156.5C 133.053,158.724 128.22,161.058 123.5,163.5 Z M 154.5,153.5 C 152.455,157.265 149.455,158.931 145.5,158.5C 147.756,155.538 150.756,153.871 154.5,153.5 Z M 138.5,158.5 C 139.782,159.708 139.782,161.042 138.5,162.5C 136.2,164.831 134.534,164.664 133.5,162C 135.233,160.811 136.9,159.644 138.5,158.5 Z M 121.5,169.5 C 122.574,168.115 123.907,166.949 125.5,166C 126.332,165.312 126.998,165.479 127.5,166.5C 125.757,168.038 123.757,169.038 121.5,169.5 Z M 135.5,166.5 C 137.379,166.393 137.712,166.893 136.5,168C 133.125,168.632 132.791,168.132 135.5,166.5 Z M 118.5,176.5 C 121.926,174.8 125.593,173.466 129.5,172.5C 130.817,179.387 128.984,185.387 124,190.5C 123.627,188.302 123.127,186.135 122.5,184C 125.783,179.067 124.45,176.567 118.5,176.5 Z M 121.5,207.5 C 122.172,204.657 123.505,202.157 125.5,200C 135.318,192.996 144.485,185.163 153,176.5C 152.176,179.801 150.51,182.801 148,185.5C 139.857,193.822 131.024,201.156 121.5,207.5 Z M 143.5,181.5 C 138.421,186.915 132.754,191.582 126.5,195.5C 130.422,188.707 136.088,184.04 143.5,181.5 Z M 152.5,184.5 C 152.262,186.404 151.262,187.738 149.5,188.5C 149.738,186.596 150.738,185.262 152.5,184.5 Z M 114.5,205.5 C 114.092,202.401 115.259,200.067 118,198.5C 118.864,201.813 117.698,204.146 114.5,205.5 Z M 117.5,207.5 C 117.357,210.097 116.523,212.431 115,214.5C 112.945,211.325 113.778,208.991 117.5,207.5 Z M 100.5,220.5 C 102.713,215.948 105.713,211.948 109.5,208.5C 110.521,209.002 110.688,209.668 110,210.5C 106.601,213.729 103.435,217.062 100.5,220.5 Z"/></g>
<g><path style="opacity:0.796" fill="#fbfbfb" d="M 98.5,193.5 C 99.1667,194.167 99.8333,194.833 100.5,195.5C 96.0533,206.257 93.72,217.257 93.5,228.5C 94.2679,229.263 94.7679,230.263 95,231.5C 95.7792,228.903 96.2792,228.903 96.5,231.5C 96.5,232.167 96.5,232.833 96.5,233.5C 100.14,229.194 104.14,225.194 108.5,221.5C 109.117,221.389 109.617,221.056 110,220.5C 111.47,222.631 112.97,224.631 114.5,226.5C 118.499,222.67 122.665,219.003 127,215.5C 127.692,214.563 127.525,213.897 126.5,213.5C 125.508,213.672 124.842,213.338 124.5,212.5C 126.091,210.367 128.091,208.701 130.5,207.5C 131.798,206.884 132.798,206.884 133.5,207.5C 133.047,208.458 132.381,209.292 131.5,210C 136.747,212.78 136.747,215.613 131.5,218.5C 128.946,217.473 126.946,218.306 125.5,221C 128.875,222.029 130.042,224.196 129,227.5C 120.98,230.167 114.647,235.167 110,242.5C 107.751,250.735 106.418,259.068 106,267.5C 108.894,261.938 112.561,256.938 117,252.5C 116.666,248.895 118.166,246.561 121.5,245.5C 126.766,249.506 126.099,252.339 119.5,254C 105.889,267.994 99.8885,284.827 101.5,304.5C 109.711,324.226 121.878,341.226 138,355.5C 138.563,356.725 138.23,357.725 137,358.5C 133,354.5 129,350.5 125,346.5C 124.333,347.167 124.333,347.833 125,348.5C 128.396,351.393 131.229,354.726 133.5,358.5C 132.635,359.583 131.635,359.749 130.5,359C 118.962,346.764 109.796,332.931 103,317.5C 102.616,324.713 103.116,331.879 104.5,339C 104.32,341.241 103.487,341.741 102,340.5C 100.19,329.916 99.1895,319.249 99,308.5C 94.7274,300.288 90.7274,291.955 87,283.5C 73.6564,275.989 64.4897,264.989 59.5,250.5C 62.0163,250.755 64.3496,251.589 66.5,253C 71.2193,256.597 75.386,260.763 79,265.5C 77.2396,255.8 74.2396,246.467 70,237.5C 68.1877,234.72 66.021,232.22 63.5,230C 59.5872,230.44 56.9206,228.94 55.5,225.5C 57.1919,221.391 59.6919,220.725 63,223.5C 65.214,227.398 67.8807,231.065 71,234.5C 70.9022,229.143 70.2355,223.81 69,218.5C 59.175,202.695 54.0084,185.529 53.5,167C 53.8333,163.167 54.1667,159.333 54.5,155.5C 59.4606,167.874 63.9606,180.541 68,193.5C 68.4461,190.657 68.9461,187.824 69.5,185C 66.3183,174.29 65.8183,163.456 68,152.5C 79.4955,114.91 83.8288,116.243 81,156.5C 79.6087,166.673 76.6087,176.34 72,185.5C 71.2232,198.862 71.5565,212.195 73,225.5C 76.1811,216.981 78.6811,208.481 80.5,200C 77.7767,189.709 78.2767,179.542 82,169.5C 85.1479,159.555 88.9812,149.889 93.5,140.5C 94.325,139.614 95.325,139.281 96.5,139.5C 96.9348,158.524 97.1015,177.524 97,196.5C 97.2321,195.263 97.7321,194.263 98.5,193.5 Z M 56.5,169.5 C 62.6585,182.48 66.4918,196.147 68,210.5C 64.7246,203.616 61.7246,196.616 59,189.5C 57.058,182.972 56.2247,176.305 56.5,169.5 Z M 93.5,164.5 C 94.7168,176.355 94.5501,188.355 93,200.5C 93.1223,188.512 93.289,176.512 93.5,164.5 Z M 87.5,162.5 C 85.6378,175.094 84.4712,187.761 84,200.5C 81.8381,194.397 81.1714,188.064 82,181.5C 83.165,174.853 84.9984,168.519 87.5,162.5 Z M 90.5,161.5 C 91.1524,162.449 91.4857,163.615 91.5,165C 90.5085,179.487 89.6752,193.987 89,208.5C 86.8971,192.76 87.3971,177.093 90.5,161.5 Z M 77.5,132.5 C 80.3815,148.788 78.2148,164.455 71,179.5C 69.5863,172.215 69.253,164.882 70,157.5C 72.2013,149.064 74.7013,140.731 77.5,132.5 Z M 84.5,207.5 C 85.6935,207.97 86.3601,208.97 86.5,210.5C 86.3333,211.5 86.1667,212.5 86,213.5C 85.4954,211.482 84.9954,209.482 84.5,207.5 Z M 117.5,207.5 C 113.778,208.991 112.945,211.325 115,214.5C 116.523,212.431 117.357,210.097 117.5,207.5 Z M 81.5,208.5 C 84.2261,212.416 83.7261,215.749 80,218.5C 79.7506,221.177 78.7506,223.51 77,225.5C 77.9638,219.762 79.4638,214.095 81.5,208.5 Z M 100.5,220.5 C 103.435,217.062 106.601,213.729 110,210.5C 110.688,209.668 110.521,209.002 109.5,208.5C 105.713,211.948 102.713,215.948 100.5,220.5 Z M 108.5,221.5 C 104.14,225.194 100.14,229.194 96.5,233.5C 96.5,232.833 96.5,232.167 96.5,231.5C 100.71,225.11 105.544,219.11 111,213.5C 111.667,214.833 111.667,216.167 111,217.5C 109.519,218.471 108.685,219.804 108.5,221.5 Z M 126.5,213.5 C 127.525,213.897 127.692,214.563 127,215.5C 122.665,219.003 118.499,222.67 114.5,226.5C 114.892,224.821 115.392,223.154 116,221.5C 119.658,218.934 123.158,216.268 126.5,213.5 Z M 80.5,224.5 C 82.4672,224.261 84.3005,224.594 86,225.5C 88.2636,231.662 88.9303,237.996 88,244.5C 87.1184,241.211 86.4517,237.877 86,234.5C 85.586,234.043 85.086,233.709 84.5,233.5C 82.2261,235.713 80.7261,238.379 80,241.5C 79.6667,245.5 79.3333,249.5 79,253.5C 77.3878,248.606 76.2211,243.606 75.5,238.5C 76.0659,233.382 77.7326,228.716 80.5,224.5 Z M 110.5,224.5 C 111.124,224.917 111.457,225.584 111.5,226.5C 110,231.833 108.5,237.167 107,242.5C 106.362,241.391 105.862,240.225 105.5,239C 107.579,234.953 106.579,232.286 102.5,231C 105.355,228.969 108.022,226.803 110.5,224.5 Z M 117.5,229.5 C 118.793,227.704 120.293,226.037 122,224.5C 121.823,227.186 120.323,228.852 117.5,229.5 Z M 98.5,235.5 C 103.052,239.286 105.052,244.286 104.5,250.5C 101.777,266.729 99.9437,283.062 99,299.5C 92.9764,282.002 90.3098,264.002 91,245.5C 93.7167,242.29 96.2167,238.956 98.5,235.5 Z M 83.5,239.5 C 84.6566,247.656 84.8232,255.99 84,264.5C 82.3733,256.162 82.2066,247.829 83.5,239.5 Z M 91.5,285.5 C 89.4031,281.47 87.4031,277.303 85.5,273C 86.6942,267.265 87.5276,261.432 88,255.5C 88.5596,265.582 89.7263,275.582 91.5,285.5 Z M 65.5,256.5 C 68.7311,258.22 71.5644,260.553 74,263.5C 77.4241,268.022 80.5908,272.689 83.5,277.5C 79.9482,275.796 76.7815,273.462 74,270.5C 70.9043,265.972 68.0709,261.305 65.5,256.5 Z"/></g>
<g><path style="opacity:0.93" fill="#fdfdfd" d="M 178.5,183.5 C 212.502,183.333 246.502,183.5 280.5,184C 293.755,184.193 305.255,188.693 315,197.5C 325,212.167 325,226.833 315,241.5C 310.234,245.93 304.734,249.097 298.5,251C 321.429,258.349 330.262,273.849 325,297.5C 320.435,309.064 312.268,316.898 300.5,321C 296.203,322.158 291.869,323.158 287.5,324C 251.168,324.5 214.835,324.667 178.5,324.5C 178.5,277.5 178.5,230.5 178.5,183.5 Z M 187.5,192.5 C 221.535,192.042 255.535,192.542 289.5,194C 310.007,198.846 317.173,211.346 311,231.5C 305.935,239.958 298.435,244.792 288.5,246C 254.859,247.435 221.193,247.935 187.5,247.5C 187.5,229.167 187.5,210.833 187.5,192.5 Z M 187.5,255.5 C 218.168,255.333 248.835,255.5 279.5,256C 292.754,256.19 303.92,261.023 313,270.5C 322.265,292.473 315.432,306.973 292.5,314C 288.205,314.912 283.872,315.579 279.5,316C 248.835,316.5 218.168,316.667 187.5,316.5C 187.5,296.167 187.5,275.833 187.5,255.5 Z"/></g>
<g><path style="opacity:0.793" fill="#fbfbfb" d="M 390.5,328.5 C 389.811,327.226 388.977,327.226 388,328.5C 387.667,327.5 387.333,326.5 387,325.5C 385.333,327.167 383.667,328.833 382,330.5C 381.329,329.748 380.496,329.414 379.5,329.5C 379.5,329.167 379.5,328.833 379.5,328.5C 380.833,328.167 380.833,327.833 379.5,327.5C 379.958,326.228 379.291,325.228 377.5,324.5C 378.263,323.732 379.263,323.232 380.5,323C 374.916,322.004 373.583,319.171 376.5,314.5C 377.857,313.41 378.857,312.076 379.5,310.5C 380.648,314.141 381.981,317.808 383.5,321.5C 387.112,320.361 390.446,318.694 393.5,316.5C 400.637,302.266 404.803,287.266 406,271.5C 403.033,277.604 399.533,283.271 395.5,288.5C 395.672,287.508 395.338,286.842 394.5,286.5C 397.498,281.135 396.832,280.468 392.5,284.5C 392.565,284.062 392.399,283.728 392,283.5C 391.292,284.381 390.458,285.047 389.5,285.5C 394.951,279.044 399.618,272.044 403.5,264.5C 399.5,268.833 395.5,273.167 391.5,277.5C 390.272,276.694 389.272,275.694 388.5,274.5C 390.978,272.197 393.645,270.031 396.5,268C 394.939,267.682 393.772,266.849 393,265.5C 393.438,262.801 393.272,260.135 392.5,257.5C 390.628,263.115 388.961,268.782 387.5,274.5C 386.895,276.481 385.895,276.815 384.5,275.5C 384.5,274.5 384.5,273.5 384.5,272.5C 379.785,276.548 375.452,280.881 371.5,285.5C 372.167,286.167 372.833,286.833 373.5,287.5C 373.5,288.167 373.167,288.5 372.5,288.5C 371.039,287.314 369.705,287.314 368.5,288.5C 364.03,287.735 363.03,285.568 365.5,282C 369.248,282.22 372.248,280.887 374.5,278C 370.94,277.127 369.44,274.96 370,271.5C 372.624,269.965 375.457,268.798 378.5,268C 383.503,264.007 387.337,259.174 390,253.5C 391.992,245.882 393.325,238.215 394,230.5C 390.738,236.693 386.738,242.36 382,247.5C 381.423,252.616 379.089,253.95 375,251.5C 373.524,246.638 375.357,244.471 380.5,245C 394.573,229.567 400.073,211.4 397,190.5C 387.643,172.775 375.643,157.108 361,143.5C 360.409,142.517 360.743,141.85 362,141.5C 365.446,143.471 368.612,145.804 371.5,148.5C 370.627,146.114 369.127,144.114 367,142.5C 366.833,142 366.667,141.5 366.5,141C 366.85,139.743 367.517,139.409 368.5,140C 379.77,152.028 388.936,165.528 396,180.5C 396.661,173.425 396.161,166.425 394.5,159.5C 394.824,157.431 395.658,157.098 397,158.5C 398.83,169.766 400.163,181.099 401,192.5C 405.045,199.96 408.712,207.627 412,215.5C 425.878,222.598 435.045,233.598 439.5,248.5C 436.984,248.245 434.65,247.411 432.5,246C 427.684,241.006 423.018,236.506 418.5,232.5C 421.821,241.456 424.988,250.456 428,259.5C 430.167,262.333 432.333,265.167 434.5,268C 437.171,269.467 440.005,270.634 443,271.5C 443.987,275.506 442.487,277.339 438.5,277C 435.809,272.296 432.309,268.129 428,264.5C 428.466,269.774 429.133,275.107 430,280.5C 435.738,290.648 440.404,301.314 444,312.5C 445.992,322.421 446.658,332.421 446,342.5C 444.605,343.815 443.605,343.481 443,341.5C 439.198,329.094 435.198,316.76 431,304.5C 430.793,308.089 430.293,311.589 429.5,315C 432.304,323.938 433.137,333.105 432,342.5C 429.445,353.668 425.612,364.335 420.5,374.5C 415.322,354.23 417.489,334.563 427,315.5C 427.823,301.136 427.489,286.803 426,272.5C 423.664,281.161 421.164,289.661 418.5,298C 420.864,306.421 421.03,314.921 419,323.5C 415.906,336.677 410.906,349.011 404,360.5C 403.667,360.167 403.333,359.833 403,359.5C 402.667,340.833 402.333,322.167 402,303.5C 399.209,312.401 395.376,320.734 390.5,328.5 Z M 433.5,242.5 C 425.469,236.666 419.636,229.333 416,220.5C 424.293,225.951 430.126,233.284 433.5,242.5 Z M 407.5,213.5 C 413.864,221.439 415.031,230.106 411,239.5C 410.439,230.738 409.272,222.071 407.5,213.5 Z M 399.5,198.5 C 406.09,216.119 408.923,234.452 408,253.5C 405.966,256.909 403.466,259.909 400.5,262.5C 398.947,261.561 397.613,260.394 396.5,259C 395.618,255.377 394.952,251.71 394.5,248C 397.916,231.672 399.583,215.172 399.5,198.5 Z M 371.5,148.5 C 373.587,149.585 374.92,151.251 375.5,153.5C 373.413,152.415 372.08,150.749 371.5,148.5 Z M 414.5,235.5 C 415.29,236.609 415.79,237.942 416,239.5C 416.667,245.833 416.667,252.167 416,258.5C 414.536,251.007 414.036,243.34 414.5,235.5 Z M 419.5,244.5 C 422.398,251.12 423.564,258.12 423,265.5C 421.798,270.647 418.798,273.98 414,275.5C 410.712,269.043 410.045,262.376 412,255.5C 412.256,258.557 412.756,261.557 413.5,264.5C 414.002,265.521 414.668,265.688 415.5,265C 416.211,263.745 417.044,262.579 418,261.5C 419.351,255.928 419.851,250.262 419.5,244.5 Z M 388.5,274.5 C 388.167,274.5 387.833,274.5 387.5,274.5C 388.961,268.782 390.628,263.115 392.5,257.5C 393.272,260.135 393.438,262.801 393,265.5C 393.772,266.849 394.939,267.682 396.5,268C 393.645,270.031 390.978,272.197 388.5,274.5 Z M 403.5,264.5 C 399.618,272.044 394.951,279.044 389.5,285.5C 388.414,285.38 387.747,284.713 387.5,283.5C 388.432,281.235 389.765,279.235 391.5,277.5C 395.5,273.167 399.5,268.833 403.5,264.5 Z M 380.5,270.5 C 379.496,271.683 378.662,273.016 378,274.5C 377.09,272.055 377.924,270.722 380.5,270.5 Z M 384.5,272.5 C 384.5,273.5 384.5,274.5 384.5,275.5C 380.755,279.546 376.422,282.879 371.5,285.5C 375.452,280.881 379.785,276.548 384.5,272.5 Z M 422.5,273.5 C 421.517,278.954 420.017,284.287 418,289.5C 414.616,285.587 415.116,282.587 419.5,280.5C 420.058,277.873 421.058,275.54 422.5,273.5 Z M 412.5,284.5 C 413.775,286.608 414.275,288.942 414,291.5C 412.798,289.323 412.298,286.989 412.5,284.5 Z M 431.5,290.5 C 439.485,303.299 443.319,317.299 443,332.5C 437.632,318.899 433.798,304.899 431.5,290.5 Z M 409.5,295.5 C 410.649,295.791 411.316,296.624 411.5,298C 412.19,309.898 411.356,321.731 409,333.5C 408.96,320.839 409.126,308.173 409.5,295.5 Z M 412.5,333.5 C 413.855,321.545 414.689,309.545 415,297.5C 418.856,309.853 418.022,321.853 412.5,333.5 Z M 405.5,301.5 C 406.827,309.045 406.66,316.712 405,324.5C 404.888,316.84 405.054,309.173 405.5,301.5 Z M 427.5,319.5 C 428.29,320.609 428.79,321.942 429,323.5C 430.952,338.691 428.286,353.024 421,366.5C 419.203,350.247 421.37,334.581 427.5,319.5 Z"/></g>
<g><path style="opacity:0.883" fill="#fafafa" d="M 387.5,274.5 C 387.833,274.5 388.167,274.5 388.5,274.5C 389.272,275.694 390.272,276.694 391.5,277.5C 389.765,279.235 388.432,281.235 387.5,283.5C 387.747,284.713 388.414,285.38 389.5,285.5C 390.458,285.047 391.292,284.381 392,283.5C 392.399,283.728 392.565,284.062 392.5,284.5C 391.542,285.962 390.376,287.295 389,288.5C 388.437,289.725 388.77,290.725 390,291.5C 390.996,289.34 392.496,287.673 394.5,286.5C 395.338,286.842 395.672,287.508 395.5,288.5C 393.08,290.92 391.913,293.92 392,297.5C 387.69,297.636 384.523,299.636 382.5,303.5C 388.838,306.441 389.004,309.441 383,312.5C 381.697,312.022 380.531,311.355 379.5,310.5C 378.857,312.076 377.857,313.41 376.5,314.5C 376.662,312.473 376.495,310.473 376,308.5C 375,309.167 374,309.833 373,310.5C 369.96,315.544 368.793,320.877 369.5,326.5C 372.021,325.215 374.687,324.548 377.5,324.5C 379.291,325.228 379.958,326.228 379.5,327.5C 379.5,327.833 379.5,328.167 379.5,328.5C 378.508,328.328 377.842,328.662 377.5,329.5C 378.167,329.5 378.833,329.5 379.5,329.5C 380.496,329.414 381.329,329.748 382,330.5C 383.667,328.833 385.333,327.167 387,325.5C 387.333,326.5 387.667,327.5 388,328.5C 388.977,327.226 389.811,327.226 390.5,328.5C 393.281,336.625 395.281,344.959 396.5,353.5C 394.542,367.215 389.375,379.548 381,390.5C 373.766,398.404 365.933,405.571 357.5,412C 355.559,413.903 353.226,414.736 350.5,414.5C 357.602,396.071 363.769,377.404 369,358.5C 365,362.5 361,366.5 357,370.5C 352.976,385.923 346.643,400.256 338,413.5C 332.38,420.127 325.88,425.627 318.5,430C 307.619,435.126 296.619,439.96 285.5,444.5C 284.068,444.267 283.568,443.6 284,442.5C 301.787,425.253 317.954,407.253 332.5,388.5C 323.345,394.077 313.678,398.577 303.5,402C 296.609,411.226 290.109,420.726 284,430.5C 274.979,440.073 263.812,445.24 250.5,446C 239.203,447.553 227.87,448.22 216.5,448C 215.542,446.853 215.875,445.853 217.5,445C 234.205,436.95 249.872,427.284 264.5,416C 268.5,414 272.5,412 276.5,410C 265.836,411.327 255.17,412.994 244.5,415C 223.639,417.634 203.639,414.634 184.5,406C 174.949,401.723 165.616,397.223 156.5,392.5C 156.977,391.522 157.643,390.689 158.5,390C 197.448,383.046 234.448,388.88 269.5,407.5C 288.508,404.775 306.508,398.942 323.5,390C 314.993,392.292 306.326,394.292 297.5,396C 275.031,397.539 253.697,393.373 233.5,383.5C 233.709,382.914 234.043,382.414 234.5,382C 256.692,375.19 279.358,371.856 302.5,372C 314.518,373.36 326.518,374.86 338.5,376.5C 341.5,376 344.5,375.5 347.5,375C 362.188,363.152 374.521,349.319 384.5,333.5C 384.333,333.167 384.167,332.833 384,332.5C 378.737,337.765 372.904,342.265 366.5,346C 365.009,348.097 364.009,350.43 363.5,353C 360.975,353.896 358.808,353.396 357,351.5C 357.405,353.379 358.238,355.213 359.5,357C 358.68,360.745 356.68,361.745 353.5,360C 352.594,358.301 352.261,356.467 352.5,354.5C 349.123,354.69 346.456,356.19 344.5,359C 346.15,363.686 344.484,365.686 339.5,365C 337.935,363.129 337.269,361.296 337.5,359.5C 323.947,363.343 310.281,366.677 296.5,369.5C 303.26,354.25 314.594,343.75 330.5,338C 340.413,334.529 350.413,331.362 360.5,328.5C 363.532,324.111 365.698,319.444 367,314.5C 362.941,317.54 360.108,321.374 358.5,326C 355.983,326.579 353.983,325.746 352.5,323.5C 347.402,327.373 342.069,330.706 336.5,333.5C 337.303,325.927 339.803,318.927 344,312.5C 351.399,303.6 359.565,295.6 368.5,288.5C 369.705,287.314 371.039,287.314 372.5,288.5C 366.642,293.602 360.976,298.935 355.5,304.5C 364.135,298.5 372.469,292 380.5,285C 381.451,284.282 381.617,283.449 381,282.5C 378.6,284.415 376.1,286.081 373.5,287.5C 372.833,286.833 372.167,286.167 371.5,285.5C 376.422,282.879 380.755,279.546 384.5,275.5C 385.895,276.815 386.895,276.481 387.5,274.5 Z M 350.5,309.5 C 350.573,311.027 349.906,312.027 348.5,312.5C 348.427,310.973 349.094,309.973 350.5,309.5 Z M 371.5,304.5 C 367.753,310.717 362.42,315.05 355.5,317.5C 360.229,312.439 365.562,308.106 371.5,304.5 Z M 384.5,292.5 C 385.318,295.336 384.318,297.669 381.5,299.5C 380.417,298.635 380.251,297.635 381,296.5C 382.376,295.295 383.542,293.962 384.5,292.5 Z M 346.5,321.5 C 349.49,315.062 353.823,309.562 359.5,305C 365.757,300.287 371.924,295.454 378,290.5C 377.637,294.379 375.803,297.546 372.5,300C 363.377,306.624 354.71,313.791 346.5,321.5 Z M 383.5,284.5 C 386.209,287.009 385.875,289.342 382.5,291.5C 382.167,291.167 381.833,290.833 381.5,290.5C 382.372,288.55 383.039,286.55 383.5,284.5 Z M 355.5,304.5 C 360.976,298.935 366.642,293.602 372.5,288.5C 373.167,288.5 373.5,288.167 373.5,287.5C 376.1,286.081 378.6,284.415 381,282.5C 381.617,283.449 381.451,284.282 380.5,285C 372.469,292 364.135,298.5 355.5,304.5 Z M 377.5,329.5 C 376.426,330.885 375.093,332.051 373.5,333C 372.668,333.688 372.002,333.521 371.5,332.5C 373.243,330.962 375.243,329.962 377.5,329.5 Z M 362.5,330.5 C 367.505,330.443 367.672,331.11 363,332.5C 361.316,332.317 361.15,331.65 362.5,330.5 Z M 306.5,358.5 C 307.702,356.608 309.035,354.774 310.5,353C 324.033,343.157 339.033,336.824 355.5,334C 352.274,336.067 348.94,337.9 345.5,339.5C 341.851,337.749 339.185,338.749 337.5,342.5C 326.2,346.175 315.867,351.509 306.5,358.5 Z M 363.5,334.5 C 364.267,335.172 364.934,336.005 365.5,337C 363.751,338.292 361.918,339.458 360,340.5C 359.219,339.056 359.386,337.723 360.5,336.5C 361.739,336.058 362.739,335.391 363.5,334.5 Z M 375.5,335.5 C 370.851,339.303 366.018,342.97 361,346.5C 360.219,345.056 360.386,343.723 361.5,342.5C 366.437,340.533 371.104,338.199 375.5,335.5 Z M 365.5,395.5 C 369.596,386.972 373.429,378.306 377,369.5C 380.066,357.97 383.732,346.637 388,335.5C 389.146,358.853 381.646,378.853 365.5,395.5 Z M 345.5,345.5 C 347.247,341.626 350.247,339.793 354.5,340C 352.449,343.36 349.449,345.193 345.5,345.5 Z M 366.5,400.5 C 373.644,391.568 379.81,381.901 385,371.5C 388.9,362.567 391.233,353.233 392,343.5C 393.36,366.79 384.86,385.79 366.5,400.5 Z M 314.5,357.5 C 321.955,352.02 330.121,347.687 339,344.5C 340.255,345.211 341.421,346.044 342.5,347C 333.182,350.605 323.848,354.105 314.5,357.5 Z M 353.5,345.5 C 354.403,347.924 353.569,349.924 351,351.5C 351.451,349.48 352.284,347.48 353.5,345.5 Z M 380.5,346.5 C 376.888,363.686 370.555,379.686 361.5,394.5C 364.72,377.155 371.054,361.155 380.5,346.5 Z M 347.5,347.5 C 348.239,347.369 348.906,347.536 349.5,348C 347.833,351 345.5,353.333 342.5,355C 331.991,358.627 321.325,361.294 310.5,363C 323.056,358.101 335.389,352.934 347.5,347.5 Z M 283.5,374.5 C 298.6,374.343 313.6,375.51 328.5,378C 306.335,378.822 284.169,379.322 262,379.5C 261.167,379.333 260.333,379.167 259.5,379C 267.627,377.44 275.627,375.94 283.5,374.5 Z M 276.5,380.5 C 290.489,381.151 304.489,381.651 318.5,382C 302.193,384.909 285.86,384.909 269.5,382C 272.036,381.814 274.369,381.314 276.5,380.5 Z M 327.5,382.5 C 328.873,382.343 330.207,382.51 331.5,383C 317.88,388.874 303.713,392.707 289,394.5C 273.998,393.633 259.498,390.466 245.5,385C 263.388,384.465 281.222,385.298 299,387.5C 308.828,386.946 318.328,385.28 327.5,382.5 Z M 345.5,383.5 C 339.265,401.401 327.931,415.068 311.5,424.5C 315.797,419.702 320.297,415.035 325,410.5C 331.313,401.032 338.146,392.032 345.5,383.5 Z M 348.5,385.5 C 342.658,407.494 329.325,422.661 308.5,431C 318.255,423.916 327.422,416.083 336,407.5C 340.447,400.267 344.614,392.933 348.5,385.5 Z M 257.5,405.5 C 233.375,401.423 209.375,396.589 185.5,391C 181.833,390.667 178.167,390.333 174.5,390C 203.631,387.927 231.297,393.094 257.5,405.5 Z M 171.5,394.5 C 175.981,393.352 180.648,393.185 185.5,394C 207.501,398.667 229.501,403.334 251.5,408C 240.128,408.826 228.794,408.492 217.5,407C 201.922,403.526 186.588,399.36 171.5,394.5 Z M 365.5,395.5 C 365.573,397.027 364.906,398.027 363.5,398.5C 363.427,396.973 364.094,395.973 365.5,395.5 Z M 174.5,398.5 C 174.735,397.903 175.235,397.57 176,397.5C 183.975,399.936 191.808,402.769 199.5,406C 214.223,410.049 229.223,412.049 244.5,412C 225.875,414.708 207.875,412.374 190.5,405C 185.183,402.729 179.85,400.563 174.5,398.5 Z M 329.5,398.5 C 322.644,409.03 314.311,418.363 304.5,426.5C 312.098,416.565 320.431,407.232 329.5,398.5 Z M 294.5,408.5 C 289.911,417.934 283.911,426.434 276.5,434C 269.18,438.827 261.18,441.494 252.5,442C 258.61,439.779 264.277,436.779 269.5,433C 277.702,424.631 286.035,416.464 294.5,408.5 Z M 276.5,413.5 C 269.35,419.137 262.017,424.637 254.5,430C 248.474,433.879 242.141,437.046 235.5,439.5C 244.942,433.269 254.275,426.769 263.5,420C 267.577,417.295 271.91,415.128 276.5,413.5 Z M 284.5,413.5 C 278.338,420.496 271.671,426.996 264.5,433C 255.424,438.208 245.758,441.708 235.5,443.5C 249.921,436.785 263.254,428.285 275.5,418C 278.411,416.239 281.411,414.739 284.5,413.5 Z"/></g>
</svg>
